<?xml version="1.0" encoding="UTF-8"?>
<svg xmlns="http://www.w3.org/2000/svg" version="1.1" viewBox="0 0 456.67 109.06">
  <defs>
    <style>
      .cls-1 {
        fill: #fff;
      }

      .cls-2 {
        fill: #cfd1d2;
      }

      .cls-3 {
        fill: #e72429;
      }
    </style>
  </defs>
  <!-- Generator: Adobe Illustrator 28.7.1, SVG Export Plug-In . SVG Version: 1.2.0 Build 142)  -->
  <g>
    <g id="Layer_1">
      <g>
        <path class="cls-2" d="M449.6,41.87l-23.98-30.02c-4.33-6.39-12.78-10.83-20.49-10.83h-255.21c-2.9,0-5.97.63-8.92,1.73-1.81-1.09-3.91-1.75-6.15-1.75h-29.81c-2.74,0-6.84,0-11.32,1.63-1.76-1.02-3.79-1.6-5.94-1.6h-29.83c-4.11,0-13.72,0-21.79,8.88,0,0-23.97,27.73-24.06,27.83-.41.52-1.02,1.18-1.47,1.62-1.11.55-2.15,1.3-3.04,2.2-2.24,2.24-3.51,5.28-3.51,8.43,0,1.59.34,3.08.9,4.47-.28.75-.53,1.53-.64,2.35-.89,5.43,2.07,10.72,7.08,12.84,3.48,2.52,13.82,14.86,22.5,26.95.24.33.49.67.77.96,7.26,8.17,12.45,9.75,20.05,9.94.75.03,1.57.04,2.55.11.27,0,.55,0,.82,0l28.1.03c2.22,0,4.33-.66,6.2-1.8,2.86,1.26,5.89,1.82,9.46,1.82.54,0,3.45-.05,3.45-.05,0,0,28.89.03,29.01.03.24,0,.5-.03.75-.03,2.11-.12,4.09-.82,5.8-1.93,2.98,1.12,6.11,1.78,9.03,1.78h255.21c7.7,0,16.16-4.45,20.49-10.83l23.98-30.04c4.89-7.18,4.89-17.57,0-24.73"/>
        <path class="cls-3" d="M62.1,49.94s.05.02.12,0h.08c1.52-.66,4.14-2.64,6.17-4.76l23.79-27.53c4.23-4.7,8.67-4.71,12.77-4.71h29.81c-8.51,5.11-29.13,30.94-29.13,30.94-6.21,7.03-8.5,6.06-14.52,6.06h-29.1Z"/>
        <path class="cls-3" d="M105.33,95.71c-6.05,0-8.31.96-14.53-6.06,0,0-20.85-25.94-28.51-30.97h29.2c4.08,0,8.53.04,12.77,4.75l23.79,27.53c2.01,2.09,4.62,4.11,6.15,4.75h.1c.08.02.06-.02.1,0h-29.08Z"/>
        <path class="cls-3" d="M21.38,45.21l23.79-27.53c4-4.38,8.67-4.74,12.78-4.74h29.83c-6.89,2.27-29.12,30.97-29.12,30.97-6.24,7.04-7.89,5.59-14.54,6.06h-28.11s0,.02.1,0h.07c2.19-1,5.2-4.76,5.2-4.76"/>
        <path class="cls-3" d="M86.06,95.71h.09c.09.02.09,0,.09,0h-28.12c-6.65-.47-8.28.96-14.51-6.06,0,0-20.62-28.69-27.5-30.97h28.2c4.12,0,8.77.36,12.77,4.75l23.77,27.53s3.03,3.75,5.21,4.75"/>
        <path class="cls-3" d="M439.76,48.61c2.13,3.11,2.13,8.17,0,11.27l-23.96,30.04c-2.11,3.09-6.92,5.63-10.66,5.63h-255.21c-3.74,0-8.81-2.33-11.24-5.21l-26.26-30.92c-2.43-2.84-2.43-7.53,0-10.39l26.26-30.91c2.43-2.87,7.5-5.2,11.24-5.2h255.21c3.74,0,8.56,2.52,10.66,5.64l23.96,30.04Z"/>
        <path class="cls-1" d="M192.85,39.05c.3.78.55,1.41.74,1.98.3.91.5,1.89.65,2.98.19,1.16.27,2.37.27,3.62-.07,5.98-1.73,11.17-5.03,15.59-3.27,4.45-7.54,7.44-12.76,8.96-2.25.67-4.68,1-7.27,1-1.88,0-3.67-.18-5.3-.56-6.55-1.33-11.44-4.71-14.75-10.04-1.08-1.69-1.86-3.43-2.38-5.35-.51-1.88-.75-3.97-.75-6.28,0-2.49.31-4.89.93-7.15.55-2.1,1.49-4.24,2.74-6.47,1.4-2.37,2.87-4.33,4.46-5.89,1.42-1.44,3.16-2.66,5.21-3.73,1.89-1.02,3.83-1.81,5.94-2.41,2.8-.74,5.86-1.12,9.12-1.12,4.12,0,7.89.75,11.37,2.15l3.28,1.52,2.72,9.62-1.24-.75c-1.33-.72-2.54-1.36-3.75-1.93-1.75-.73-3.51-1.26-5.35-1.68-1.8-.36-3.62-.57-5.46-.57-5.06.07-9.43,2.12-13.12,6.25-1.33,1.51-2.51,3.22-3.47,5.1-1.99,3.85-2.95,7.86-2.95,11.94,0,.81.04,1.59.15,2.29.14,1.34.52,2.53,1.13,3.56.18.26.3.48.51.76l.67.43c2.05,1.28,4.41,1.9,7.26,1.92,2.1,0,4.14-.39,6.07-1.1,1.7-.58,3.13-1.47,4.44-2.59,1.95-1.63,3.67-3.95,5.01-6.92,1.36-2.98,2.06-5.81,2.02-8.53,0-2.44-.51-4.76-1.59-6.85l-.53-.94h10.45s.55,1.21.55,1.21Z"/>
        <path class="cls-1" d="M214.07,25.54l.15.66.05.92c0,.47,0,.95-.05,1.43-.23,1.67-.59,3.95-1.18,6.85l-.96,4.68-4.98,23.47-.5,2.53-.1.39c-.03.25-.05.44-.03.57.01.69.39,1.01.99.99.37,0,.82-.05,1.39-.17.43-.08.82-.22,1.25-.37l.68-.2-.85,3.54-1.58.58c-2.37.65-4.75,1.02-7.17,1.02-3.71-.04-5.53-1.44-5.52-4.19,0-.87.09-1.75.31-2.67l.84-4.25,5.23-23.84.63-2.82.51-2.71.29-2.01.07-1.95c0-.7-.05-1.28-.15-1.73l-.21-.72h10.89Z"/>
        <path class="cls-1" d="M217.39,76.82l.99.36c1.24.42,2.17.72,2.92.84.88.23,2,.32,3.26.29,1.38.03,2.63-.12,3.66-.41,4.4-1.08,7.45-4.71,9.12-10.83l1.56-5.54.63-2.33c-2.8,3.16-4.91,5.48-6.4,6.89l-2.27,2.14-2.05,1.74c-.65.58-1.13,1-1.47,1.18-.96.7-1.71,1.07-2.09,1.15l-.64.11-.8-.11-.74-.14-1.24-.41c-.65-.18-1.28-.48-1.94-.94-.59-.32-1.16-.65-1.67-1.02-.52-.36-.95-.8-1.34-1.24l-.71-.87c-.36-.36-.53-.83-.53-1.4l.09-1.13c.1-1.02.23-1.76.37-2.15l.59-2.68.58-2.86,2.24-9.88.59-2.47c.17-.68.23-1.37.33-2.17.04-.76.07-1.57.11-2.36,0-.35-.04-.63-.04-.85l-.11-.88h10.6s.09.73.09.73c.12.64.19,1.29.19,2,0,.92-.08,1.67-.2,2.28-.07.62-.31,1.55-.58,2.79l-3,12.74-.58,2.36-.2.92c-.08.18-.12.34-.08.44,0,.21.08.36.21.48l.2.1c.5.01,2.26-1.52,5.27-4.64,1.63-1.74,3.18-3.63,4.6-5.56,1.43-1.96,2.66-3.99,3.73-6.12,1.15-2.34,2.08-4.72,2.84-7.32l.31-1.21h9.94s-3.78,18.19-3.78,18.19l-1.66,7.43c-.56,2.69-1.12,4.96-1.69,6.92-1.39,5.06-3.88,8.95-7.53,11.62-3.57,2.67-7.76,4-12.55,4-3.49,0-6.76-.62-9.77-1.83l-1.27-.54,1.92-7.82Z"/>
        <path class="cls-1" d="M259.9,47.68l.38-2.16c.17-.97.31-1.78.39-2.49l.1-1.82c0-.76-.01-1.38-.18-1.93l-.1-.43h10.65c.2.64.34,1.47.35,2.5,0,1.2-.11,2.3-.31,3.29l-.65,3.12-1.15,4.86,1.95-3.2c2.44-4.22,4.89-7.41,7.32-9.54l.73-.56.73-.5.55-.29.57-.2c.23-.08.55-.15.9-.15.19,0,.44,0,.76.08l.86.17c.3.11.72.27,1.21.44,1.09.46,2.17,1.13,3.23,1.94l1.08.92c.77.77,1.13,1.49,1.02,2.16,0,.28-.02.53-.02.89l-.12,1.01c-.1.61-.21,1.23-.32,1.87l-.42,2.32-.26,1.78,1.76-2.58,1.75-2.49c.72-1.03,1.4-1.9,2.02-2.72.47-.57,1.04-1.27,1.72-2.01.69-.73,1.27-1.38,1.76-1.8,1.31-1.28,2.48-1.97,3.62-1.97l.7.08.84.21,1.39.59c.6.24,1.31.63,2.17,1.13.77.5,1.39.93,2,1.33,1.46,1.16,2.17,2.37,2.17,3.8,0,.37,0,.66-.04.86,0,.46-.04.84-.17,1.22l-.19,1.01-.41,2.26-.69,3.01-2.07,9.98-.59,2.81-.1.72c.01.58.39.88,1.03.86.78,0,1.59-.17,2.39-.43l.85-.32-.8,3.52-1.82.6c-2.28.65-4.61,1.02-6.85,1.02-3.7-.04-5.51-1.45-5.51-4.19-.02-.68.04-1.23.11-1.7l.67-2.97,2.49-12.36.33-1.6c.12-.6.18-1.02.19-1.32-.01-.34-.17-.57-.44-.62-.16,0-.31.05-.41.14l-.53.49-.75.84c-.72.8-1.37,1.55-1.99,2.34-.66.84-1.45,1.99-2.32,3.48l-2.85,4.62c-1.03,1.78-1.88,3.46-2.63,5.02-.93,1.88-1.78,3.8-2.58,5.75l-.53,1.42h-9.76s3.95-20.51,3.95-20.51l.35-1.63c.09-.59.15-1.01.16-1.26,0-.2-.05-.36-.08-.44l-.17-.16c-.08-.06-.16-.09-.19-.09-.27.03-.55.16-.85.42l-.89,1.09-1.74,2.17c-.61.86-1.46,2.16-2.57,3.99l-2.57,4.24c-1.93,3.36-3.63,7.04-5.19,11l-.39,1.18h-10.01s4.99-24.06,4.99-24.06Z"/>
        <path class="cls-1" d="M322.68,87.02l3.49-16.1.91.26c1.29.43,2.41.68,3.42.88,1.26.22,2.48.37,3.74.37,1.72.02,3.5-.21,5.33-.68,1.84-.51,3.46-1.13,4.85-1.99,1.47-.89,2.89-2.04,4.18-3.46,4.07-4.47,6.11-10.04,6.13-16.66l-.03-1.66c-.08-1.54-.2-2.67-.48-3.4-.27-.92-.93-1.81-1.96-2.63l-1.29-1c-.37-.21-.94-.53-1.69-.93l-1.56-.72c-.54-.22-1.07-.4-1.59-.58l-1.06-.29-.88-.2c-.18-.04-.33-.04-.52-.04-.49,0-.87.08-1.16.24l-.96.52c-.68.4-1.26.79-1.75,1.15-.48.34-1.07.8-1.76,1.39-2.08,1.84-4.69,4.7-7.8,8.5l.51-1.5c.25-.85.42-1.69.54-2.5.16-.61.3-1.33.38-2.18.08-.79.13-1.52.13-2.15-.06-.7-.07-1.45-.17-2.15l-.13-.63h-10.46s.13.31.13.31c.04.33.12,1.01.13,1.97l-.07,1.67c-.03.5-.18,1.35-.42,2.56l-.36,2.02-.63,3.12-7.63,36.51h10.44ZM328.55,62.23c1.28-2.77,2.93-5.43,5.14-7.98,2.38-2.75,4.66-4.91,6.74-6.41l1.32-.94c.92-.57,1.57-.89,2.09-.93l.42.13c.45.17.63.89.57,2.13l-.11,1.28c-.48,4.27-1.96,7.86-4.48,10.74-1.04,1.27-2.15,2.28-3.28,2.96-1.44.95-3.22,1.41-5.36,1.41-1.14,0-2.1-.1-2.89-.25l-.88-.2c.28-.87.55-1.51.73-1.94"/>
        <path class="cls-1" d="M364.28,26.47c1.02-2.64,2.85-3.95,5.49-3.92,1.34-.03,2.41.42,3.26,1.37.8.93,1.24,2.07,1.24,3.52,0,1.94-.62,3.74-1.78,5.42-1.16,1.62-2.71,2.41-4.62,2.37-2.8-.02-4.18-1.78-4.19-5.29-.02-1.22.16-2.4.6-3.47M368.56,71.35c-1.06.35-2.2.58-3.51.76-1.4.17-2.63.28-3.7.28-3.65.1-5.46-1.3-5.41-4.2-.05-.82.06-1.7.26-2.62l4-17.83.43-1.87c.35-1.63.51-3.17.51-4.53,0-.78-.01-1.46-.16-2.07l-.08-.43h10.46s.15.75.15.75c.09.6.16,1.35.16,2.21,0,.9-.07,1.75-.16,2.53-.04.36-.15,1.03-.34,2l-.41,2.28-.53,1.97-2.85,12.98-.4,1.81c-.2.72-.29,1.24-.26,1.57,0,.7.33,1.1.98,1.1l.52-.06.73-.15c.48-.07.92-.18,1.23-.32l.77-.25-.8,3.57-1.6.52Z"/>
        <path class="cls-1" d="M403.22,46.86c-2.11-.53-4.55-.85-7.26-.85-.9,0-1.79.09-2.69.15-.67.05-1.24.13-1.76.25l-1.05.24-.98,1.4c-.62,1.06-1.19,2.19-1.65,3.43-.93,2.29-1.42,4.37-1.42,6.35-.05,2.14.63,3.89,2.11,5.15,1.27,1.15,2.98,1.68,5.11,1.63,2.14,0,4.28-.48,6.39-1.41l1.6-.81-2.59,8.95-1.09.25c-.73.24-1.45.43-2.25.5-1.34.28-2.6.38-3.84.34-1.61.04-3.27-.18-4.89-.6-3.54-.76-6.3-2.23-8.22-4.46-2.18-2.46-3.31-5.56-3.29-9.27-.02-1.7.19-3.37.67-4.94.46-1.72,1.24-3.37,2.24-4.95.95-1.45,2.11-2.77,3.57-4.06,1.34-1.18,2.69-2.19,4.17-3.02,1.64-.91,3.38-1.62,5.23-2.1,2.05-.59,4.09-.84,6.16-.84,2.27-.04,4.5.2,6.75.72l1.56.4-1.99,7.68-.6-.15Z"/>
      </g>
    </g>
  </g>
</svg>